<svg version="1.1" viewBox="0 0 400 400" xmlns="http://www.w3.org/2000/svg" >
    <!-- Road Line -->
    <line x1="50" y1="50" x2="50" y2="350" stroke="black" stroke-width="2" />
    <text x="50" y="75" dx="-2" font-size="smaller" fill="blue" text-anchor="end">10min</text>
    <text x="50" y="112" dx="-2" font-size="smaller" fill="blue" text-anchor="end">5min</text>
    <text x="50" y="162" dx="-2" font-size="smaller" fill="blue" text-anchor="end">15min</text>
    <text x="50" y="275" dx="-2" font-size="smaller" fill="blue" text-anchor="end">30min</text>

    <line x1="50" y1="100" x2="150" y2="100" stroke="black" stroke-width="2" />
    <text x="100" y="100" dy="2" font-size="smaller" fill="blue" text-anchor="middle" dominant-baseline="hanging">20min</text>

    <line x1="150" y1="100" x2="200" y2="100" stroke="black" stroke-width="2" stroke-dasharray="4" />
    <text x="175" y="100" dy="2" font-size="smaller" fill="blue" text-anchor="middle" dominant-baseline="hanging">5K</text>

    <!-- Trail Line-->

    <line x1="50" y1="350" x2="175" y2="350" stroke="green" stroke-width="2" stroke-dasharray="4" />
    <line x1="175" y1="350" x2="175" y2="210" stroke="green" stroke-width="2" stroke-dasharray="4" />
    <line x1="175" y1="210" x2="175" y2="185" stroke="green" stroke-width="2" stroke-dasharray="4" />
    <line x1="175" y1="210" x2="150" y2="200" stroke="green" stroke-width="2" stroke-dasharray="4" />
    <line x1="175" y1="185" x2="175" y2="160" stroke="green" stroke-width="2" stroke-dasharray="4" />
    <line x1="175" y1="185" x2="150" y2="175" stroke="green" stroke-width="2" stroke-dasharray="4" />
    <line x1="175" y1="160" x2="150" y2="100" stroke="green" stroke-width="2" stroke-dasharray="4" />
    <line x1="175" y1="160" x2="187" y2="130" stroke="green" stroke-width="2" stroke-dasharray="4" />
    <line x1="187" y1="130" x2="200" y2="100" stroke="green" stroke-width="2" stroke-dasharray="4" />
    <line x1="150" y1="200" x2="50" y2="200" stroke="green" stroke-width="2" stroke-dasharray="4" />
    <line x1="150" y1="175" x2="50" y2="125" stroke="green" stroke-width="2" stroke-dasharray="4" />
    <text x="100" y="150" font-size="smaller" fill="blue" text-anchor="middle" dominant-baseline="ideographic">人倫林道</text>

    <!-- Location -->
    <circle cx="50" cy="50" r="3" stroke="black" stroke-width="1" fill="green" />
    <text x="50" y="50" fill="black" dominant-baseline="ideographic" text-anchor="middle" >水里</text>

    <circle cx="50" cy="100" r="3" stroke="black" stroke-width="1" fill="green" />
    <text x="50" y="100" dy="-2" fill="black" text-anchor="start" dominant-baseline="ideographic">苗圃</text>

    <circle cx="50" cy="125" r="3" stroke="black" stroke-width="1" fill="green" />
    <text x="50" y="125" dx="-2" dy="4" fill="black" text-anchor="end" dominant-baseline="central">新山</text>

    <circle cx="50" cy="200" r="3" stroke="black" stroke-width="1" fill="green" />
    <text x="50" y="200" dx="-2" fill="black" text-anchor="end" dominant-baseline="central">豐丘</text>

    <circle cx="50" cy="350" r="3" stroke="black" stroke-width="1" fill="green" />
    <text x="50" y="350" dy="6" fill="black" text-anchor="middle" dominant-baseline="hanging">東埔</text>

    <circle cx="150" cy="100" r="3" stroke="black" stroke-width="1" fill="green" />
    <text x="150" y="100" dy="-2" fill="black" text-anchor="middle" dominant-baseline="ideographic">雙龍</text>

    <circle cx="200" cy="100" r="3" stroke="black" stroke-width="1" fill="green" />
    <text x="200" y="100" dy="-2" fill="black" text-anchor="middle" dominant-baseline="ideographic">黑黑谷</text>

    <polygon points="172,353 178,353 175,347" stroke="black" stroke-width="1" fill="white" />
    <text x="175" y="350" dy="6" fill="black" text-anchor="middle" dominant-baseline="hanging">郡大山</text>

    <circle cx="175" cy="210" r="3" stroke="black" stroke-width="1" fill="green" />
    <text x="175" y="210" dx="4" fill="black" text-anchor="start" dominant-baseline="central">金鞍</text>

    <circle cx="175" cy="185" r="3" stroke="black" stroke-width="1" fill="green" />
    <text x="175" y="185" dx="4" fill="black" text-anchor="start" dominant-baseline="central">巒安堂</text>

    <circle cx="175" cy="160" r="3" stroke="black" stroke-width="1" fill="green" />
    <text x="175" y="160" dx="4" fill="black" text-anchor="start" dominant-baseline="central">停機坪</text>

    <polygon points="184,133 190,133 187,127" stroke="black" stroke-width="1" fill="white" />
    <text x="187" y="130" dx="3" fill="black" text-anchor="start" dominant-baseline="central">治茆山</text>

    <polygon points="147,203 153,203 150,197" stroke="black" stroke-width="1" fill="white" />
    <text x="150" y="200" dx="-2" dy="4" fill="black" text-anchor="end" dominant-baseline="hanging">金子山</text>

    <polygon points="147,178 153,178 150,172" stroke="black" stroke-width="1" fill="white" />
    <text x="150" y="175" dx="-2" dy="4" fill="black" text-anchor="end" dominant-baseline="central">西巒大山</text>
</svg>